<svg width="133" height="32" viewBox="0 0 133 32" fill="none" xmlns="http://www.w3.org/2000/svg">
<path d="M35.0898 27.3739V16.8965H37.305V21.5162H37.4431L41.2135 16.8965H43.8687L39.9806 21.5878L43.9147 27.3739H41.2647L38.3946 23.0663L37.305 24.3964V27.3739H35.0898ZM54.0596 22.1352C54.0596 23.2778 53.843 24.2498 53.4098 25.0513C52.9801 25.8528 52.3935 26.465 51.65 26.8879C50.9099 27.3074 50.0777 27.5171 49.1534 27.5171C48.2223 27.5171 47.3867 27.3057 46.6466 26.8828C45.9065 26.4599 45.3216 25.8477 44.8919 25.0462C44.4621 24.2447 44.2472 23.2744 44.2472 22.1352C44.2472 20.9927 44.4621 20.0206 44.8919 19.2191C45.3216 18.4176 45.9065 17.8071 46.6466 17.3876C47.3867 16.9647 48.2223 16.7533 49.1534 16.7533C50.0777 16.7533 50.9099 16.9647 51.65 17.3876C52.3935 17.8071 52.9801 18.4176 53.4098 19.2191C53.843 20.0206 54.0596 20.9927 54.0596 22.1352ZM51.8137 22.1352C51.8137 21.3951 51.7028 20.771 51.4811 20.2628C51.2629 19.7546 50.9542 19.3692 50.5552 19.1066C50.1561 18.844 49.6889 18.7127 49.1534 18.7127C48.6179 18.7127 48.1507 18.844 47.7516 19.1066C47.3526 19.3692 47.0422 19.7546 46.8206 20.2628C46.6023 20.771 46.4931 21.3951 46.4931 22.1352C46.4931 22.8753 46.6023 23.4995 46.8206 24.0076C47.0422 24.5158 47.3526 24.9012 47.7516 25.1638C48.1507 25.4264 48.6179 25.5578 49.1534 25.5578C49.6889 25.5578 50.1561 25.4264 50.5552 25.1638C50.9542 24.9012 51.2629 24.5158 51.4811 24.0076C51.7028 23.4995 51.8137 22.8753 51.8137 22.1352ZM57.0025 16.8965L59.5349 24.8569H59.6321L62.1696 16.8965H64.6252L61.0134 27.3739H58.1587L54.5417 16.8965H57.0025ZM68.1015 16.8965V27.3739H65.8863V16.8965H68.1015ZM79.5521 22.1352C79.5521 23.2778 79.3356 24.2498 78.9024 25.0513C78.4727 25.8528 77.8861 26.465 77.1426 26.8879C76.4025 27.3074 75.5703 27.5171 74.646 27.5171C73.7149 27.5171 72.8793 27.3057 72.1392 26.8828C71.3991 26.4599 70.8142 25.8477 70.3844 25.0462C69.9547 24.2447 69.7398 23.2744 69.7398 22.1352C69.7398 20.9927 69.9547 20.0206 70.3844 19.2191C70.8142 18.4176 71.3991 17.8071 72.1392 17.3876C72.8793 16.9647 73.7149 16.7533 74.646 16.7533C75.5703 16.7533 76.4025 16.9647 77.1426 17.3876C77.8861 17.8071 78.4727 18.4176 78.9024 19.2191C79.3356 20.0206 79.5521 20.9927 79.5521 22.1352ZM77.3063 22.1352C77.3063 21.3951 77.1954 20.771 76.9737 20.2628C76.7554 19.7546 76.4468 19.3692 76.0477 19.1066C75.6487 18.844 75.1815 18.7127 74.646 18.7127C74.1105 18.7127 73.6433 18.844 73.2442 19.1066C72.8452 19.3692 72.5348 19.7546 72.3131 20.2628C72.0949 20.771 71.9857 21.3951 71.9857 22.1352C71.9857 22.8753 72.0949 23.4995 72.3131 24.0076C72.5348 24.5158 72.8452 24.9012 73.2442 25.1638C73.6433 25.4264 74.1105 25.5578 74.646 25.5578C75.1815 25.5578 75.6487 25.4264 76.0477 25.1638C76.4468 24.9012 76.7554 24.5158 76.9737 24.0076C77.1954 23.4995 77.3063 22.8753 77.3063 22.1352Z" fill="#111827"/>
<path fill-rule="evenodd" clip-rule="evenodd" d="M30.3255 0C30.3255 6.99911 25.5714 12.8577 19.3046 14.2143C18.4162 14.4184 17.4918 14.5145 16.5434 14.5145H0V0H11.0329V9.6763H8.27168V2.90529H2.76123V11.6212H16.5434C17.4918 11.6212 18.4162 11.4891 19.3046 11.249C23.1583 10.1925 26.2197 6.9751 27.2281 2.90529H19.3046V9.6763H16.5434V0H30.3255Z" fill="#FF4800"/>
<path fill-rule="evenodd" clip-rule="evenodd" d="M19.3046 29.041H27.2281C26.2076 24.9832 23.1583 21.7537 19.3046 20.6973C18.4282 20.4571 17.5038 20.3251 16.5434 20.3251H2.76123V29.041H8.27168V22.6541H11.0329V31.9463H0V17.4198H16.5434C17.4918 17.4198 18.4162 17.5158 19.3046 17.7199C25.5714 19.0765 30.3255 24.9592 30.3255 31.9463H16.5434V22.9182H19.3046V29.041Z" fill="#FF4800"/>
<path d="M11.0329 8.40369H8.27167V23.9266H11.0329V8.40369Z" fill="#FF4800"/>
<path d="M19.3046 8.87195H16.5434V23.9266H19.3046V8.87195Z" fill="#FF4800"/>
<path d="M2.76123 7.26318H0V23.9266H2.76123V7.26318Z" fill="#FF4800"/>
<path d="M89.7165 27.6681H87.3428L90.9597 17.1907H93.8144L97.4262 27.6681H95.0524L92.428 19.585H92.3461L89.7165 27.6681ZM89.5682 23.5498H95.1752V25.279H89.5682V23.5498ZM101.176 27.796C100.579 27.796 100.039 27.6425 99.5544 27.3356C99.0735 27.0252 98.6916 26.5699 98.4085 25.9696C98.1288 25.3659 97.989 24.6258 97.989 23.7493C97.989 22.8489 98.1339 22.1003 98.4238 21.5034C98.7137 20.9032 99.0991 20.4547 99.58 20.1579C100.064 19.8578 100.595 19.7077 101.171 19.7077C101.611 19.7077 101.978 19.7828 102.271 19.9328C102.568 20.0795 102.806 20.2637 102.987 20.4854C103.171 20.7036 103.311 20.9185 103.407 21.13H103.473V17.1907H105.647V27.6681H103.499V26.4096H103.407C103.304 26.6279 103.159 26.8444 102.972 27.0593C102.788 27.2708 102.547 27.4464 102.251 27.5862C101.957 27.7261 101.599 27.796 101.176 27.796ZM101.867 26.0617C102.218 26.0617 102.515 25.9662 102.757 25.7752C103.003 25.5808 103.19 25.3097 103.32 24.9618C103.453 24.6139 103.519 24.2063 103.519 23.7391C103.519 23.2718 103.454 22.866 103.325 22.5215C103.195 22.177 103.008 21.911 102.762 21.7234C102.517 21.5358 102.218 21.442 101.867 21.442C101.509 21.442 101.207 21.5392 100.961 21.7336C100.716 21.928 100.53 22.1975 100.404 22.5419C100.277 22.8864 100.214 23.2855 100.214 23.7391C100.214 24.1961 100.277 24.6003 100.404 24.9515C100.533 25.2994 100.719 25.5723 100.961 25.7701C101.207 25.9645 101.509 26.0617 101.867 26.0617ZM107.439 27.6681V19.8101H109.516V21.1965H109.608C109.772 20.736 110.045 20.3728 110.427 20.1068C110.809 19.8407 111.266 19.7077 111.798 19.7077C112.337 19.7077 112.796 19.8425 113.174 20.1119C113.553 20.3779 113.805 20.7394 113.931 21.1965H114.013C114.174 20.7463 114.463 20.3864 114.883 20.117C115.306 19.8442 115.806 19.7077 116.382 19.7077C117.115 19.7077 117.71 19.9414 118.167 20.4086C118.628 20.8725 118.858 21.5307 118.858 22.3834V27.6681H116.684V22.8131C116.684 22.3765 116.568 22.0491 116.336 21.8308C116.104 21.6126 115.814 21.5034 115.466 21.5034C115.071 21.5034 114.762 21.6296 114.54 21.882C114.319 22.131 114.208 22.4601 114.208 22.8694V27.6681H112.095V22.767C112.095 22.3817 111.984 22.0747 111.762 21.8462C111.544 21.6177 111.256 21.5034 110.898 21.5034C110.656 21.5034 110.437 21.5648 110.243 21.6876C110.052 21.807 109.9 21.9758 109.788 22.1941C109.675 22.4089 109.619 22.6613 109.619 22.9512V27.6681H107.439ZM120.58 27.6681V19.8101H122.759V27.6681H120.58ZM121.674 18.7971C121.35 18.7971 121.072 18.6897 120.84 18.4748C120.612 18.2565 120.498 17.9956 120.498 17.6921C120.498 17.3919 120.612 17.1344 120.84 16.9196C121.072 16.7013 121.35 16.5921 121.674 16.5921C121.998 16.5921 122.275 16.7013 122.503 16.9196C122.735 17.1344 122.851 17.3919 122.851 17.6921C122.851 17.9956 122.735 18.2565 122.503 18.4748C122.275 18.6897 121.998 18.7971 121.674 18.7971ZM126.684 23.1252V27.6681H124.505V19.8101H126.582V21.1965H126.674C126.848 20.7394 127.139 20.3779 127.549 20.1119C127.958 19.8425 128.454 19.7077 129.037 19.7077C129.583 19.7077 130.059 19.8271 130.465 20.0658C130.871 20.3046 131.186 20.6457 131.411 21.089C131.636 21.529 131.749 22.0542 131.749 22.6647V27.6681H129.569V23.0535C129.573 22.5726 129.45 22.1975 129.201 21.928C128.952 21.6552 128.609 21.5188 128.173 21.5188C127.88 21.5188 127.62 21.5819 127.395 21.7081C127.174 21.8342 127 22.0184 126.873 22.2606C126.751 22.4993 126.688 22.7875 126.684 23.1252Z" fill="black"/>
</svg>
