<svg width="33" height="228" viewBox="0 0 33 228" fill="none" xmlns="http://www.w3.org/2000/svg">
<rect width="33" height="33" rx="16.5" fill="#B3DEC2"/>
<path d="M16.5 6.5C10.99 6.5 6.5 10.99 6.5 16.5C6.5 22.01 10.99 26.5 16.5 26.5C22.01 26.5 26.5 22.01 26.5 16.5C26.5 10.99 22.01 6.5 16.5 6.5ZM21.28 14.2L15.61 19.87C15.47 20.01 15.28 20.09 15.08 20.09C14.88 20.09 14.69 20.01 14.55 19.87L11.72 17.04C11.43 16.75 11.43 16.27 11.72 15.98C12.01 15.69 12.49 15.69 12.78 15.98L15.08 18.28L20.22 13.14C20.51 12.85 20.99 12.85 21.28 13.14C21.57 13.43 21.57 13.9 21.28 14.2Z" fill="#1B9B48"/>
<line x1="16.5" y1="37" x2="16.5" y2="77" stroke="#CCCFD6" stroke-dasharray="4 4"/>
<rect y="85" width="33" height="33" rx="16.5" fill="#B3DEC2"/>
<path d="M16.5 91.5C10.99 91.5 6.5 95.99 6.5 101.5C6.5 107.01 10.99 111.5 16.5 111.5C22.01 111.5 26.5 107.01 26.5 101.5C26.5 95.99 22.01 91.5 16.5 91.5ZM21.28 99.2L15.61 104.87C15.47 105.01 15.28 105.09 15.08 105.09C14.88 105.09 14.69 105.01 14.55 104.87L11.72 102.04C11.43 101.75 11.43 101.27 11.72 100.98C12.01 100.69 12.49 100.69 12.78 100.98L15.08 103.28L20.22 98.14C20.51 97.85 20.99 97.85 21.28 98.14C21.57 98.43 21.57 98.9 21.28 99.2Z" fill="#1B9B48"/>
<line x1="16.5" y1="122" x2="16.5" y2="162" stroke="#CCCFD6" stroke-dasharray="4 4"/>
<rect y="170" width="33" height="33" rx="16.5" fill="#EFF0F3"/>
<path d="M16.0898 193.176C13.5586 193.176 11.7393 191.822 11.6602 189.801H13.2598C13.3477 191.014 14.5518 191.77 16.0723 191.77C17.751 191.77 18.9639 190.864 18.9727 189.537C18.9639 188.148 17.8564 187.173 15.8789 187.164H14.8418V185.775H15.8789C17.4258 185.775 18.5068 184.905 18.498 183.596C18.5068 182.321 17.5752 181.478 16.125 181.469C14.7627 181.478 13.5234 182.225 13.4531 183.473H11.9238C12.0029 181.451 13.8838 180.098 16.1426 180.098C18.5684 180.098 20.0449 181.688 20.0273 183.508C20.0449 184.958 19.2012 186.013 17.8652 186.391V186.479C19.5264 186.733 20.5283 187.92 20.5195 189.537C20.5283 191.629 18.6299 193.176 16.0898 193.176Z" fill="#111834"/>
</svg>
