<svg width="164" height="231" viewBox="0 0 164 231" fill="none" xmlns="http://www.w3.org/2000/svg">
<path d="M54.1133 32.0918V33.1855H49.6562V32.0918H54.1133Z" fill="#6B7280"/>
<path d="M49.8203 15V4.81445H53.5596C54.2796 4.81445 54.8766 4.93294 55.3506 5.16992C55.8245 5.4069 56.1777 5.72819 56.4102 6.13379C56.6471 6.53483 56.7656 6.986 56.7656 7.4873C56.7656 7.91113 56.6859 8.26888 56.5264 8.56055C56.3714 8.85221 56.1641 9.08464 55.9043 9.25781C55.6445 9.43099 55.3574 9.55859 55.043 9.64062V9.73633C55.3848 9.75456 55.7174 9.86393 56.041 10.0645C56.3646 10.265 56.6312 10.5498 56.8408 10.9189C57.055 11.2835 57.1621 11.7301 57.1621 12.2588C57.1621 12.7783 57.0391 13.2454 56.793 13.6602C56.5514 14.0703 56.1777 14.3962 55.6719 14.6377C55.166 14.8792 54.5166 15 53.7236 15H49.8203ZM51.3584 13.6875H53.5732C54.3115 13.6875 54.8402 13.5439 55.1592 13.2568C55.4782 12.9697 55.6377 12.612 55.6377 12.1836C55.6377 11.86 55.5557 11.5661 55.3916 11.3018C55.2321 11.0329 55.002 10.8187 54.7012 10.6592C54.4004 10.4997 54.0449 10.4199 53.6348 10.4199H51.3584V13.6875ZM51.3584 9.22363H53.4229C53.7646 9.22363 54.0745 9.15755 54.3525 9.02539C54.6305 8.89323 54.8493 8.70638 55.0088 8.46484C55.1729 8.21875 55.2549 7.93392 55.2549 7.61035C55.2549 7.19108 55.1068 6.84017 54.8105 6.55762C54.5189 6.27051 54.07 6.12695 53.4639 6.12695H51.3584V9.22363ZM61.5593 15.1572C60.8438 15.1572 60.2171 14.9932 59.6794 14.665C59.1462 14.3369 58.7315 13.8766 58.4352 13.2842C58.1436 12.6917 57.9977 12.0036 57.9977 11.2197C57.9977 10.4268 58.1436 9.73405 58.4352 9.1416C58.7315 8.5446 59.1462 8.08203 59.6794 7.75391C60.2171 7.42578 60.8438 7.26172 61.5593 7.26172C62.2793 7.26172 62.9059 7.42578 63.4391 7.75391C63.9723 8.08203 64.3871 8.5446 64.6833 9.1416C64.9795 9.73405 65.1276 10.4268 65.1276 11.2197C65.1276 12.0036 64.9795 12.6917 64.6833 13.2842C64.3871 13.8766 63.9723 14.3369 63.4391 14.665C62.9059 14.9932 62.2793 15.1572 61.5593 15.1572ZM61.5593 13.9062C62.0287 13.9062 62.416 13.7832 62.7214 13.5371C63.0267 13.291 63.2523 12.9652 63.3981 12.5596C63.5485 12.1494 63.6237 11.7028 63.6237 11.2197C63.6237 10.7275 63.5485 10.2764 63.3981 9.86621C63.2523 9.45605 63.0267 9.12793 62.7214 8.88184C62.416 8.63574 62.0287 8.5127 61.5593 8.5127C61.0944 8.5127 60.7093 8.63574 60.404 8.88184C60.1032 9.12793 59.8776 9.45605 59.7272 9.86621C59.5768 10.2764 59.5016 10.7275 59.5016 11.2197C59.5016 11.7028 59.5768 12.1494 59.7272 12.5596C59.8776 12.9652 60.1032 13.291 60.404 13.5371C60.7093 13.7832 61.0944 13.9062 61.5593 13.9062ZM69.4769 15.1572C68.7614 15.1572 68.1348 14.9932 67.597 14.665C67.0638 14.3369 66.6491 13.8766 66.3529 13.2842C66.0612 12.6917 65.9154 12.0036 65.9154 11.2197C65.9154 10.4268 66.0612 9.73405 66.3529 9.1416C66.6491 8.5446 67.0638 8.08203 67.597 7.75391C68.1348 7.42578 68.7614 7.26172 69.4769 7.26172C70.197 7.26172 70.8236 7.42578 71.3568 7.75391C71.89 8.08203 72.3047 8.5446 72.6009 9.1416C72.8972 9.73405 73.0453 10.4268 73.0453 11.2197C73.0453 12.0036 72.8972 12.6917 72.6009 13.2842C72.3047 13.8766 71.89 14.3369 71.3568 14.665C70.8236 14.9932 70.197 15.1572 69.4769 15.1572ZM69.4769 13.9062C69.9463 13.9062 70.3337 13.7832 70.639 13.5371C70.9444 13.291 71.1699 12.9652 71.3158 12.5596C71.4662 12.1494 71.5414 11.7028 71.5414 11.2197C71.5414 10.7275 71.4662 10.2764 71.3158 9.86621C71.1699 9.45605 70.9444 9.12793 70.639 8.88184C70.3337 8.63574 69.9463 8.5127 69.4769 8.5127C69.0121 8.5127 68.627 8.63574 68.3216 8.88184C68.0209 9.12793 67.7953 9.45605 67.6449 9.86621C67.4945 10.2764 67.4193 10.7275 67.4193 11.2197C67.4193 11.7028 67.4945 12.1494 67.6449 12.5596C67.7953 12.9652 68.0209 13.291 68.3216 13.5371C68.627 13.7832 69.0121 13.9062 69.4769 13.9062ZM75.5557 12.4092L75.5352 10.5977H75.8018L78.8438 7.35742H80.6211L77.1553 11.0488H76.9092L75.5557 12.4092ZM74.1885 15V4.81445H75.6651V15H74.1885ZM79.001 15L76.2666 11.377L77.292 10.3311L80.833 15H79.001ZM81.4636 15V7.35742H82.9402V15H81.4636ZM82.2087 6.18164C81.9489 6.18164 81.7279 6.09505 81.5456 5.92188C81.3633 5.7487 81.2722 5.54134 81.2722 5.2998C81.2722 5.05371 81.3633 4.84408 81.5456 4.6709C81.7279 4.49772 81.9489 4.41113 82.2087 4.41113C82.4639 4.41113 82.6827 4.49772 82.865 4.6709C83.0518 4.84408 83.1452 5.05371 83.1452 5.2998C83.1452 5.54134 83.0518 5.7487 82.865 5.92188C82.6827 6.09505 82.4639 6.18164 82.2087 6.18164ZM85.9086 10.4678V15H84.432V7.35742H85.8676V8.61523H85.9701C86.1433 8.20052 86.4145 7.8724 86.7836 7.63086C87.1527 7.38477 87.6267 7.26172 88.2055 7.26172C88.725 7.26172 89.1784 7.37109 89.5658 7.58984C89.9577 7.80404 90.2608 8.12533 90.475 8.55371C90.6937 8.9821 90.8031 9.51302 90.8031 10.1465V15H89.3266V10.3242C89.3266 9.77279 89.1807 9.33984 88.8891 9.02539C88.5974 8.70638 88.2009 8.54688 87.6996 8.54688C87.3578 8.54688 87.0502 8.62435 86.7768 8.7793C86.5079 8.92969 86.296 9.14616 86.141 9.42871C85.9861 9.71126 85.9086 10.0576 85.9086 10.4678ZM95.4805 18.0215C94.5691 18.0215 93.8513 17.8506 93.3272 17.5088C92.8031 17.167 92.4408 16.7614 92.2403 16.292L93.5118 15.7656C93.6029 15.9115 93.7237 16.0664 93.8741 16.2305C94.029 16.3945 94.2364 16.5335 94.4962 16.6475C94.7559 16.7614 95.0909 16.8184 95.5011 16.8184C96.0616 16.8184 96.5264 16.6816 96.8956 16.4082C97.2647 16.1393 97.4493 15.7064 97.4493 15.1094V13.6123H97.3468C97.2647 13.7718 97.1394 13.9518 96.9708 14.1523C96.8022 14.3483 96.572 14.5192 96.2803 14.665C95.9887 14.8109 95.6081 14.8838 95.1387 14.8838C94.5372 14.8838 93.9949 14.7425 93.5118 14.46C93.0333 14.1729 92.6505 13.7536 92.3634 13.2021C92.0808 12.6462 91.9395 11.9626 91.9395 11.1514C91.9395 10.3402 92.0785 9.64518 92.3565 9.06641C92.6391 8.48307 93.0219 8.03646 93.505 7.72656C93.988 7.41667 94.5372 7.26172 95.1524 7.26172C95.6264 7.26172 96.0092 7.34147 96.3009 7.50098C96.5971 7.65592 96.8272 7.83822 96.9913 8.04785C97.1553 8.25749 97.283 8.44206 97.3741 8.60156H97.4835V7.35742H98.9259V15.1709C98.9259 15.8271 98.7732 16.3649 98.4678 16.7842C98.1671 17.2035 97.7569 17.5133 97.2374 17.7139C96.7178 17.9189 96.1322 18.0215 95.4805 18.0215ZM95.4669 13.6465C96.1095 13.6465 96.6016 13.4255 96.9434 12.9834C97.2898 12.5368 97.463 11.9193 97.463 11.1309C97.463 10.6159 97.3878 10.1647 97.2374 9.77734C97.087 9.38542 96.8637 9.08008 96.5675 8.86133C96.2712 8.63802 95.9044 8.52637 95.4669 8.52637C95.0203 8.52637 94.6466 8.64258 94.3458 8.875C94.0496 9.10286 93.8262 9.41504 93.6759 9.81152C93.5255 10.2035 93.4503 10.6432 93.4503 11.1309C93.4503 11.6276 93.5255 12.0674 93.6759 12.4502C93.8262 12.8285 94.0518 13.1224 94.3526 13.332C94.658 13.5417 95.0294 13.6465 95.4669 13.6465ZM104.582 15H102.949L106.613 4.81445H108.39L112.047 15H110.42L107.536 6.66699H107.454L104.582 15ZM104.856 11.0146H110.14V12.2998H104.856V11.0146ZM115.959 15.1572C115.225 15.1572 114.592 14.9886 114.059 14.6514C113.526 14.3141 113.115 13.8493 112.828 13.2568C112.541 12.6644 112.398 11.9854 112.398 11.2197C112.398 10.4404 112.543 9.75456 112.835 9.16211C113.131 8.5651 113.544 8.10026 114.072 7.76758C114.606 7.43034 115.23 7.26172 115.945 7.26172C116.529 7.26172 117.046 7.36882 117.497 7.58301C117.953 7.79264 118.32 8.09115 118.598 8.47852C118.88 8.86589 119.047 9.31706 119.097 9.83203H117.648C117.597 9.59049 117.499 9.36947 117.354 9.16895C117.212 8.96842 117.026 8.80892 116.793 8.69043C116.561 8.57194 116.285 8.5127 115.966 8.5127C115.551 8.5127 115.189 8.62207 114.879 8.84082C114.574 9.05501 114.334 9.36263 114.161 9.76367C113.988 10.1647 113.901 10.6387 113.901 11.1855C113.901 11.737 113.986 12.2178 114.154 12.6279C114.323 13.0381 114.562 13.3548 114.872 13.5781C115.187 13.7969 115.551 13.9062 115.966 13.9062C116.394 13.9062 116.759 13.7878 117.06 13.5508C117.365 13.3138 117.561 12.9902 117.648 12.5801H119.097C119.047 13.0768 118.887 13.5189 118.618 13.9062C118.349 14.2936 117.989 14.599 117.538 14.8223C117.087 15.0456 116.561 15.1572 115.959 15.1572ZM123.426 15.1572C122.692 15.1572 122.058 14.9886 121.525 14.6514C120.992 14.3141 120.582 13.8493 120.295 13.2568C120.008 12.6644 119.864 11.9854 119.864 11.2197C119.864 10.4404 120.01 9.75456 120.302 9.16211C120.598 8.5651 121.01 8.10026 121.539 7.76758C122.072 7.43034 122.696 7.26172 123.412 7.26172C123.995 7.26172 124.512 7.36882 124.964 7.58301C125.419 7.79264 125.786 8.09115 126.064 8.47852C126.347 8.86589 126.513 9.31706 126.563 9.83203H125.114C125.064 9.59049 124.966 9.36947 124.82 9.16895C124.679 8.96842 124.492 8.80892 124.26 8.69043C124.027 8.57194 123.751 8.5127 123.432 8.5127C123.018 8.5127 122.655 8.62207 122.346 8.84082C122.04 9.05501 121.801 9.36263 121.628 9.76367C121.455 10.1647 121.368 10.6387 121.368 11.1855C121.368 11.737 121.452 12.2178 121.621 12.6279C121.79 13.0381 122.029 13.3548 122.339 13.5781C122.653 13.7969 123.018 13.9062 123.432 13.9062C123.861 13.9062 124.225 13.7878 124.526 13.5508C124.832 13.3138 125.027 12.9902 125.114 12.5801H126.563C126.513 13.0768 126.354 13.5189 126.085 13.9062C125.816 14.2936 125.456 14.599 125.005 14.8223C124.554 15.0456 124.027 15.1572 123.426 15.1572ZM130.974 15.1572C130.227 15.1572 129.58 14.9954 129.033 14.6719C128.486 14.3483 128.064 13.8926 127.768 13.3047C127.476 12.7122 127.331 12.0218 127.331 11.2334C127.331 10.4495 127.474 9.75911 127.761 9.16211C128.053 8.5651 128.461 8.10026 128.985 7.76758C129.513 7.43034 130.133 7.26172 130.844 7.26172C131.277 7.26172 131.696 7.33236 132.102 7.47363C132.508 7.61491 132.872 7.83822 133.196 8.14355C133.519 8.44889 133.775 8.84538 133.961 9.33301C134.153 9.82064 134.249 10.4085 134.249 11.0967V11.6299H128.171V10.5156H133.483L132.792 10.8848C132.792 10.4154 132.72 10.0007 132.574 9.64062C132.428 9.2806 132.209 9.00033 131.917 8.7998C131.63 8.59473 131.273 8.49219 130.844 8.49219C130.416 8.49219 130.049 8.59473 129.744 8.7998C129.443 9.00488 129.213 9.27604 129.053 9.61328C128.894 9.95052 128.814 10.3197 128.814 10.7207V11.4795C128.814 12.0036 128.905 12.4479 129.087 12.8125C129.27 13.1771 129.523 13.4551 129.846 13.6465C130.174 13.8379 130.555 13.9336 130.988 13.9336C131.27 13.9336 131.526 13.8926 131.753 13.8105C131.986 13.7285 132.186 13.6055 132.355 13.4414C132.524 13.2773 132.651 13.0745 132.738 12.833L134.146 13.0996C134.032 13.5098 133.832 13.8698 133.544 14.1797C133.257 14.4896 132.895 14.7311 132.457 14.9043C132.025 15.0729 131.53 15.1572 130.974 15.1572ZM135.358 17.8574V7.35742H136.793V8.60156H136.916C137.007 8.44206 137.133 8.25749 137.292 8.04785C137.456 7.83822 137.684 7.65592 137.976 7.50098C138.267 7.34147 138.648 7.26172 139.117 7.26172C139.733 7.26172 140.279 7.41667 140.758 7.72656C141.241 8.03646 141.622 8.48535 141.9 9.07324C142.178 9.66113 142.317 10.3698 142.317 11.1992C142.317 12.0195 142.18 12.7259 141.906 13.3184C141.633 13.9062 141.255 14.3597 140.772 14.6787C140.293 14.9932 139.744 15.1504 139.124 15.1504C138.664 15.1504 138.286 15.0729 137.989 14.918C137.698 14.7585 137.468 14.5739 137.299 14.3643C137.135 14.1546 137.007 13.9701 136.916 13.8105H136.834V17.8574H135.358ZM138.803 13.8857C139.245 13.8857 139.614 13.7673 139.91 13.5303C140.207 13.2933 140.43 12.972 140.58 12.5664C140.735 12.1562 140.813 11.696 140.813 11.1855C140.813 10.6797 140.737 10.2262 140.587 9.8252C140.437 9.42415 140.213 9.10742 139.917 8.875C139.621 8.64258 139.25 8.52637 138.803 8.52637C138.37 8.52637 138.005 8.63802 137.709 8.86133C137.413 9.08008 137.187 9.38997 137.032 9.79102C136.882 10.1875 136.807 10.6523 136.807 11.1855C136.807 11.7188 136.884 12.1882 137.039 12.5938C137.194 12.9993 137.42 13.3161 137.716 13.5439C138.017 13.7718 138.379 13.8857 138.803 13.8857ZM147.021 7.35742V8.55371H142.851V7.35742H147.021ZM143.966 5.53906H145.449V12.7578C145.449 13.1087 145.522 13.3662 145.668 13.5303C145.814 13.6898 146.048 13.7695 146.372 13.7695C146.449 13.7695 146.531 13.765 146.618 13.7559C146.709 13.7467 146.8 13.7331 146.891 13.7148L147.172 14.9453C147.021 14.9954 146.857 15.0342 146.68 15.0615C146.502 15.0889 146.324 15.1025 146.146 15.1025C145.486 15.1025 144.957 14.918 144.56 14.5488C144.164 14.1751 143.966 13.6784 143.966 13.0586V5.53906ZM151.364 15.1572C150.616 15.1572 149.969 14.9954 149.422 14.6719C148.876 14.3483 148.454 13.8926 148.158 13.3047C147.866 12.7122 147.72 12.0218 147.72 11.2334C147.72 10.4495 147.864 9.75911 148.151 9.16211C148.443 8.5651 148.85 8.10026 149.375 7.76758C149.903 7.43034 150.523 7.26172 151.234 7.26172C151.667 7.26172 152.086 7.33236 152.492 7.47363C152.897 7.61491 153.262 7.83822 153.585 8.14355C153.909 8.44889 154.164 8.84538 154.351 9.33301C154.543 9.82064 154.638 10.4085 154.638 11.0967V11.6299H148.561V10.5156H153.873L153.182 10.8848C153.182 10.4154 153.109 10.0007 152.963 9.64062C152.818 9.2806 152.599 9.00033 152.307 8.7998C152.02 8.59473 151.662 8.49219 151.234 8.49219C150.806 8.49219 150.439 8.59473 150.133 8.7998C149.833 9.00488 149.602 9.27604 149.443 9.61328C149.283 9.95052 149.204 10.3197 149.204 10.7207V11.4795C149.204 12.0036 149.295 12.4479 149.477 12.8125C149.659 13.1771 149.912 13.4551 150.236 13.6465C150.564 13.8379 150.945 13.9336 151.377 13.9336C151.66 13.9336 151.915 13.8926 152.143 13.8105C152.376 13.7285 152.576 13.6055 152.745 13.4414C152.913 13.2773 153.041 13.0745 153.127 12.833L154.536 13.0996C154.422 13.5098 154.221 13.8698 153.934 14.1797C153.647 14.4896 153.285 14.7311 152.847 14.9043C152.414 15.0729 151.92 15.1572 151.364 15.1572ZM158.591 15.1504C157.971 15.1504 157.42 14.9932 156.937 14.6787C156.454 14.3597 156.075 13.9062 155.802 13.3184C155.529 12.7259 155.392 12.0195 155.392 11.1992C155.392 10.3698 155.531 9.66113 155.809 9.07324C156.087 8.48535 156.467 8.03646 156.95 7.72656C157.433 7.41667 157.98 7.26172 158.591 7.26172C159.07 7.26172 159.452 7.34147 159.739 7.50098C160.031 7.65592 160.257 7.83822 160.416 8.04785C160.58 8.25749 160.706 8.44206 160.792 8.60156H160.881V4.81445H162.358V15H160.915V13.8105H160.792C160.706 13.9701 160.578 14.1546 160.409 14.3643C160.241 14.5739 160.011 14.7585 159.719 14.918C159.432 15.0729 159.056 15.1504 158.591 15.1504ZM158.912 13.8857C159.341 13.8857 159.703 13.7718 159.999 13.5439C160.295 13.3161 160.519 12.9993 160.669 12.5938C160.824 12.1882 160.902 11.7188 160.902 11.1855C160.902 10.6523 160.826 10.1875 160.676 9.79102C160.526 9.38997 160.302 9.08008 160.006 8.86133C159.71 8.63802 159.345 8.52637 158.912 8.52637C158.466 8.52637 158.094 8.64258 157.798 8.875C157.502 9.10742 157.279 9.42415 157.128 9.8252C156.978 10.2262 156.903 10.6797 156.903 11.1855C156.903 11.696 156.978 12.1562 157.128 12.5664C157.279 12.972 157.502 13.2933 157.798 13.5303C158.099 13.7673 158.47 13.8857 158.912 13.8857Z" fill="#212327"/>
<path d="M54.1133 120.092V121.186H49.6562V120.092H54.1133Z" fill="#6B7280"/>
<path d="M53.2314 103.164C52.4704 103.164 51.8096 103.046 51.249 102.809C50.693 102.567 50.2578 102.223 49.9434 101.776C49.6289 101.33 49.4535 100.799 49.417 100.184H50.9619C50.9938 100.553 51.1123 100.86 51.3174 101.106C51.527 101.348 51.7982 101.528 52.1309 101.646C52.4635 101.765 52.8281 101.824 53.2246 101.824C53.6576 101.824 54.0449 101.756 54.3867 101.619C54.7285 101.482 54.9951 101.291 55.1865 101.045C55.3825 100.794 55.4805 100.503 55.4805 100.17C55.4805 99.8691 55.3939 99.623 55.2207 99.4316C55.0521 99.2402 54.8219 99.083 54.5303 98.96C54.2386 98.8324 53.9105 98.7207 53.5459 98.625L52.3496 98.2969C51.5293 98.0781 50.8822 97.7523 50.4082 97.3193C49.9342 96.8818 49.6973 96.3099 49.6973 95.6035C49.6973 95.0156 49.8545 94.5029 50.1689 94.0654C50.488 93.6279 50.9186 93.2884 51.4609 93.0469C52.0078 92.8008 52.6208 92.6777 53.2998 92.6777C53.9925 92.6777 54.6009 92.8008 55.125 93.0469C55.6536 93.2884 56.0706 93.6211 56.376 94.0449C56.6859 94.4642 56.8477 94.945 56.8613 95.4873H55.3711C55.3164 95.0179 55.0977 94.6533 54.7148 94.3936C54.3366 94.1338 53.8535 94.0039 53.2656 94.0039C52.8555 94.0039 52.4954 94.07 52.1855 94.2021C51.8802 94.3298 51.6432 94.5075 51.4746 94.7354C51.3105 94.9632 51.2285 95.2253 51.2285 95.5215C51.2285 95.8405 51.3265 96.1003 51.5225 96.3008C51.723 96.5013 51.9645 96.6608 52.2471 96.7793C52.5342 96.8932 52.8099 96.9867 53.0742 97.0596L54.0654 97.3262C54.389 97.4082 54.7217 97.5176 55.0635 97.6543C55.4053 97.791 55.722 97.971 56.0137 98.1943C56.3099 98.4131 56.5469 98.6865 56.7246 99.0146C56.9069 99.3382 56.998 99.7301 56.998 100.19C56.998 100.76 56.8499 101.271 56.5537 101.722C56.2575 102.168 55.8291 102.521 55.2686 102.781C54.708 103.036 54.029 103.164 53.2314 103.164ZM61.4909 103.157C60.7435 103.157 60.0964 102.995 59.5495 102.672C59.0026 102.348 58.5811 101.893 58.2848 101.305C57.9932 100.712 57.8473 100.022 57.8473 99.2334C57.8473 98.4495 57.9909 97.7591 58.278 97.1621C58.5697 96.5651 58.9776 96.1003 59.5016 95.7676C60.0303 95.4303 60.6501 95.2617 61.361 95.2617C61.794 95.2617 62.2132 95.3324 62.6188 95.4736C63.0244 95.6149 63.389 95.8382 63.7126 96.1436C64.0361 96.4489 64.2914 96.8454 64.4782 97.333C64.6696 97.8206 64.7653 98.4085 64.7653 99.0967V99.6299H58.6882V98.5156H63.9997L63.3093 98.8848C63.3093 98.4154 63.2363 98.0007 63.0905 97.6406C62.9447 97.2806 62.7259 97.0003 62.4343 96.7998C62.1471 96.5947 61.7894 96.4922 61.361 96.4922C60.9326 96.4922 60.5658 96.5947 60.2604 96.7998C59.9596 97.0049 59.7295 97.276 59.57 97.6133C59.4105 97.9505 59.3307 98.3197 59.3307 98.7207V99.4795C59.3307 100.004 59.4219 100.448 59.6042 100.812C59.7865 101.177 60.0394 101.455 60.363 101.646C60.6911 101.838 61.0716 101.934 61.5046 101.934C61.7871 101.934 62.0423 101.893 62.2702 101.811C62.5026 101.729 62.7031 101.605 62.8718 101.441C63.0404 101.277 63.168 101.075 63.2546 100.833L64.6628 101.1C64.5488 101.51 64.3483 101.87 64.0612 102.18C63.7741 102.49 63.4118 102.731 62.9743 102.904C62.5414 103.073 62.0469 103.157 61.4909 103.157ZM67.3509 98.4678V103H65.8744V95.3574H67.3099V96.6152H67.4125C67.5856 96.2005 67.8568 95.8724 68.2259 95.6309C68.5951 95.3848 69.069 95.2617 69.6478 95.2617C70.1673 95.2617 70.6208 95.3711 71.0082 95.5898C71.4001 95.804 71.7032 96.1253 71.9173 96.5537C72.1361 96.9821 72.2455 97.513 72.2455 98.1465V103H70.7689V98.3242C70.7689 97.7728 70.6231 97.3398 70.3314 97.0254C70.0397 96.7064 69.6433 96.5469 69.142 96.5469C68.8002 96.5469 68.4925 96.6243 68.2191 96.7793C67.9502 96.9297 67.7383 97.1462 67.5834 97.4287C67.4284 97.7113 67.3509 98.0576 67.3509 98.4678ZM76.5811 103.15C75.9613 103.15 75.4099 102.993 74.9268 102.679C74.4437 102.36 74.0655 101.906 73.792 101.318C73.5186 100.726 73.3819 100.02 73.3819 99.1992C73.3819 98.3698 73.5209 97.6611 73.7989 97.0732C74.0769 96.4854 74.4574 96.0365 74.9405 95.7266C75.4235 95.4167 75.9704 95.2617 76.5811 95.2617C77.0596 95.2617 77.4424 95.3415 77.7295 95.501C78.0212 95.6559 78.2468 95.8382 78.4063 96.0479C78.5704 96.2575 78.6957 96.4421 78.7823 96.6016H78.8711V92.8145H80.3477V103H78.9053V101.811H78.7823C78.6957 101.97 78.5681 102.155 78.3995 102.364C78.2308 102.574 78.0007 102.758 77.709 102.918C77.4219 103.073 77.0459 103.15 76.5811 103.15ZM76.9024 101.886C77.3308 101.886 77.6931 101.772 77.9893 101.544C78.2855 101.316 78.5088 100.999 78.6592 100.594C78.8142 100.188 78.8916 99.7188 78.8916 99.1855C78.8916 98.6523 78.8164 98.1875 78.6661 97.791C78.5157 97.39 78.2924 97.0801 77.9961 96.8613C77.6999 96.638 77.3353 96.5264 76.9024 96.5264C76.4558 96.5264 76.0843 96.6426 75.7881 96.875C75.4919 97.1074 75.2686 97.4242 75.1182 97.8252C74.9678 98.2262 74.8926 98.6797 74.8926 99.1855C74.8926 99.696 74.9678 100.156 75.1182 100.566C75.2686 100.972 75.4919 101.293 75.7881 101.53C76.0889 101.767 76.4603 101.886 76.9024 101.886ZM86.0111 103H84.3773L88.0414 92.8145H89.8187L93.476 103H91.849L88.9643 94.667H88.8822L86.0111 103ZM86.2846 99.0146H91.5687V100.3H86.2846V99.0146ZM94.3048 103V95.3574H95.7198V96.6152H95.8223C95.9818 96.1914 96.2416 95.861 96.6016 95.624C96.9662 95.3825 97.3992 95.2617 97.9005 95.2617C98.4109 95.2617 98.837 95.3825 99.1788 95.624C99.5251 95.861 99.7826 96.1914 99.9512 96.6152H100.033C100.216 96.2005 100.505 95.8724 100.901 95.6309C101.298 95.3848 101.77 95.2617 102.316 95.2617C103.009 95.2617 103.577 95.4805 104.019 95.918C104.461 96.3509 104.682 97.0049 104.682 97.8799V103H103.191V98.0166C103.191 97.4971 103.05 97.1234 102.768 96.8955C102.485 96.6631 102.148 96.5469 101.756 96.5469C101.273 96.5469 100.897 96.6973 100.628 96.998C100.364 97.2943 100.232 97.6702 100.232 98.126V103H98.7413V97.9209C98.7413 97.5062 98.6137 97.1735 98.3585 96.9229C98.1033 96.6722 97.7683 96.5469 97.3536 96.5469C97.071 96.5469 96.809 96.6221 96.5675 96.7725C96.3305 96.9183 96.1391 97.1234 95.9932 97.3877C95.852 97.6475 95.7813 97.9482 95.7813 98.29V103H94.3048ZM109.38 103.157C108.664 103.157 108.038 102.993 107.5 102.665C106.967 102.337 106.552 101.877 106.256 101.284C105.964 100.692 105.818 100.004 105.818 99.2197C105.818 98.4268 105.964 97.734 106.256 97.1416C106.552 96.5446 106.967 96.082 107.5 95.7539C108.038 95.4258 108.664 95.2617 109.38 95.2617C110.1 95.2617 110.726 95.4258 111.26 95.7539C111.793 96.082 112.207 96.5446 112.504 97.1416C112.8 97.734 112.948 98.4268 112.948 99.2197C112.948 100.004 112.8 100.692 112.504 101.284C112.207 101.877 111.793 102.337 111.26 102.665C110.726 102.993 110.1 103.157 109.38 103.157ZM109.38 101.906C109.849 101.906 110.236 101.783 110.542 101.537C110.847 101.291 111.073 100.965 111.219 100.56C111.369 100.149 111.444 99.7028 111.444 99.2197C111.444 98.7275 111.369 98.2764 111.219 97.8662C111.073 97.4561 110.847 97.1279 110.542 96.8818C110.236 96.6357 109.849 96.5127 109.38 96.5127C108.915 96.5127 108.53 96.6357 108.224 96.8818C107.924 97.1279 107.698 97.4561 107.548 97.8662C107.397 98.2764 107.322 98.7275 107.322 99.2197C107.322 99.7028 107.397 100.149 107.548 100.56C107.698 100.965 107.924 101.291 108.224 101.537C108.53 101.783 108.915 101.906 109.38 101.906ZM118.931 99.8418V95.3574H120.408V103H118.958V101.674H118.876C118.694 102.079 118.412 102.419 118.029 102.692C117.646 102.966 117.167 103.1 116.593 103.096C116.101 103.096 115.666 102.989 115.288 102.774C114.914 102.56 114.62 102.239 114.406 101.811C114.196 101.382 114.091 100.851 114.091 100.218V95.3574H115.568V100.047C115.568 100.562 115.714 100.974 116.005 101.284C116.297 101.594 116.673 101.747 117.133 101.742C117.411 101.742 117.687 101.674 117.96 101.537C118.238 101.4 118.469 101.191 118.651 100.908C118.838 100.626 118.931 100.27 118.931 99.8418ZM123.376 98.4678V103H121.9V95.3574H123.335V96.6152H123.438C123.611 96.2005 123.882 95.8724 124.251 95.6309C124.62 95.3848 125.094 95.2617 125.673 95.2617C126.192 95.2617 126.646 95.3711 127.033 95.5898C127.425 95.804 127.728 96.1253 127.942 96.5537C128.161 96.9821 128.271 97.513 128.271 98.1465V103H126.794V98.3242C126.794 97.7728 126.648 97.3398 126.357 97.0254C126.065 96.7064 125.668 96.5469 125.167 96.5469C124.825 96.5469 124.518 96.6243 124.244 96.7793C123.975 96.9297 123.763 97.1462 123.609 97.4287C123.454 97.7113 123.376 98.0576 123.376 98.4678ZM133.317 95.3574V96.5537H129.147V95.3574H133.317ZM130.262 93.5391H131.745V100.758C131.745 101.109 131.818 101.366 131.964 101.53C132.11 101.69 132.344 101.77 132.668 101.77C132.745 101.77 132.827 101.765 132.914 101.756C133.005 101.747 133.096 101.733 133.187 101.715L133.468 102.945C133.317 102.995 133.153 103.034 132.975 103.062C132.798 103.089 132.62 103.103 132.442 103.103C131.781 103.103 131.253 102.918 130.856 102.549C130.46 102.175 130.262 101.678 130.262 101.059V93.5391Z" fill="#212327"/>
<path d="M54.1133 201.092V202.186H49.6562V201.092H54.1133Z" fill="#6B7280"/>
<path d="M49.8203 184V173.814H53.457C54.2454 173.814 54.8994 173.96 55.4189 174.252C55.9385 174.539 56.3281 174.933 56.5879 175.435C56.8477 175.931 56.9775 176.492 56.9775 177.116C56.9775 177.741 56.8477 178.303 56.5879 178.805C56.3281 179.301 55.9362 179.696 55.4121 179.987C54.8926 180.274 54.2363 180.418 53.4434 180.418H50.9551V179.119H53.2998C53.8057 179.119 54.2135 179.033 54.5234 178.859C54.8379 178.686 55.0658 178.449 55.207 178.148C55.3529 177.843 55.4258 177.499 55.4258 177.116C55.4258 176.729 55.3529 176.387 55.207 176.091C55.0658 175.79 54.8379 175.555 54.5234 175.387C54.209 175.218 53.7988 175.134 53.293 175.134H51.3584V184H49.8203ZM60.2809 184.164C59.7979 184.164 59.3604 184.075 58.9684 183.897C58.5765 183.715 58.2666 183.451 58.0387 183.104C57.8109 182.758 57.697 182.337 57.697 181.84C57.697 181.407 57.779 181.054 57.943 180.78C58.1117 180.502 58.3373 180.281 58.6198 180.117C58.9024 179.953 59.2168 179.83 59.5632 179.748C59.9095 179.666 60.265 179.602 60.6296 179.557C61.0899 179.507 61.4613 179.463 61.7438 179.427C62.0264 179.39 62.2315 179.333 62.3591 179.256C62.4912 179.174 62.5573 179.044 62.5573 178.866V178.832C62.5573 178.399 62.4343 178.064 62.1882 177.827C61.9466 177.59 61.5866 177.472 61.1081 177.472C60.6113 177.472 60.2171 177.581 59.9255 177.8C59.6384 178.014 59.4401 178.258 59.3307 178.531L57.9294 178.21C58.098 177.745 58.3418 177.371 58.6608 177.089C58.9844 176.802 59.3535 176.592 59.7682 176.46C60.1875 176.328 60.625 176.262 61.0807 176.262C61.3861 176.262 61.7096 176.298 62.0514 176.371C62.3932 176.439 62.7145 176.569 63.0153 176.761C63.3207 176.948 63.569 177.216 63.7604 177.567C63.9518 177.918 64.0475 178.372 64.0475 178.928V184H62.5915V182.954H62.5368C62.4457 183.141 62.3021 183.328 62.1061 183.515C61.9147 183.701 61.6686 183.856 61.3679 183.979C61.0671 184.103 60.7048 184.164 60.2809 184.164ZM60.6022 182.975C61.0169 182.975 61.3701 182.895 61.6618 182.735C61.9535 182.571 62.1768 182.357 62.3317 182.093C62.4867 181.828 62.5641 181.548 62.5641 181.252V180.261C62.5095 180.311 62.4069 180.359 62.2565 180.404C62.1061 180.45 61.9352 180.489 61.7438 180.521C61.5524 180.552 61.3656 180.582 61.1833 180.609C61.001 180.632 60.8483 180.65 60.7253 180.664C60.4382 180.705 60.1761 180.769 59.9391 180.855C59.7022 180.938 59.5108 181.061 59.3649 181.225C59.2236 181.384 59.153 181.596 59.153 181.86C59.153 182.229 59.2897 182.507 59.5632 182.694C59.8366 182.881 60.183 182.975 60.6022 182.975ZM66.2025 186.857C65.9792 186.862 65.7764 186.846 65.5941 186.81C65.4164 186.778 65.2796 186.739 65.1839 186.693L65.5463 185.483L65.6488 185.511C66.027 185.606 66.3461 185.6 66.6058 185.49C66.8701 185.385 67.0912 185.091 67.2689 184.608L67.4535 184.103L64.6644 176.357H66.2572L68.1849 182.291H68.267L70.2015 176.357H71.7943L68.6498 185.012C68.5039 185.413 68.3194 185.75 68.0961 186.023C67.8727 186.301 67.6039 186.509 67.2894 186.646C66.9795 186.787 66.6172 186.857 66.2025 186.857ZM72.6846 184V176.357H74.0996V177.615H74.2022C74.3617 177.191 74.6215 176.861 74.9815 176.624C75.3461 176.382 75.779 176.262 76.2803 176.262C76.7907 176.262 77.2168 176.382 77.5586 176.624C77.905 176.861 78.1625 177.191 78.3311 177.615H78.4131C78.5954 177.201 78.8848 176.872 79.2813 176.631C79.6778 176.385 80.1495 176.262 80.6963 176.262C81.389 176.262 81.9564 176.48 82.3985 176.918C82.8405 177.351 83.0616 178.005 83.0616 178.88V184H81.5713V179.017C81.5713 178.497 81.4301 178.123 81.1475 177.896C80.8649 177.663 80.5277 177.547 80.1358 177.547C79.6527 177.547 79.2767 177.697 79.0079 177.998C78.7435 178.294 78.6114 178.67 78.6114 179.126V184H77.1211V178.921C77.1211 178.506 76.9935 178.174 76.7383 177.923C76.4831 177.672 76.1482 177.547 75.7334 177.547C75.4509 177.547 75.1888 177.622 74.9473 177.772C74.7103 177.918 74.5189 178.123 74.3731 178.388C74.2318 178.647 74.1612 178.948 74.1612 179.29V184H72.6846ZM87.8415 184.157C87.0941 184.157 86.447 183.995 85.9001 183.672C85.3532 183.348 84.9317 182.893 84.6355 182.305C84.3438 181.712 84.198 181.022 84.198 180.233C84.198 179.45 84.3415 178.759 84.6286 178.162C84.9203 177.565 85.3282 177.1 85.8523 176.768C86.3809 176.43 87.0007 176.262 87.7116 176.262C88.1446 176.262 88.5639 176.332 88.9695 176.474C89.3751 176.615 89.7396 176.838 90.0632 177.144C90.3868 177.449 90.642 177.845 90.8288 178.333C91.0202 178.821 91.1159 179.409 91.1159 180.097V180.63H85.0388V179.516H90.3503L89.6599 179.885C89.6599 179.415 89.587 179.001 89.4411 178.641C89.2953 178.281 89.0765 178 88.7849 177.8C88.4978 177.595 88.14 177.492 87.7116 177.492C87.2833 177.492 86.9164 177.595 86.6111 177.8C86.3103 178.005 86.0801 178.276 85.9206 178.613C85.7611 178.951 85.6814 179.32 85.6814 179.721V180.479C85.6814 181.004 85.7725 181.448 85.9548 181.812C86.1371 182.177 86.39 182.455 86.7136 182.646C87.0417 182.838 87.4223 182.934 87.8552 182.934C88.1377 182.934 88.393 182.893 88.6208 182.811C88.8532 182.729 89.0538 182.605 89.2224 182.441C89.391 182.277 89.5186 182.075 89.6052 181.833L91.0134 182.1C90.8995 182.51 90.6989 182.87 90.4118 183.18C90.1247 183.49 89.7624 183.731 89.3249 183.904C88.892 184.073 88.3975 184.157 87.8415 184.157ZM93.7016 179.468V184H92.225V176.357H93.6605V177.615H93.7631C93.9363 177.201 94.2074 176.872 94.5766 176.631C94.9457 176.385 95.4197 176.262 95.9984 176.262C96.518 176.262 96.9714 176.371 97.3588 176.59C97.7507 176.804 98.0538 177.125 98.268 177.554C98.4867 177.982 98.5961 178.513 98.5961 179.146V184H97.1195V179.324C97.1195 178.773 96.9737 178.34 96.682 178.025C96.3904 177.706 95.9939 177.547 95.4926 177.547C95.1508 177.547 94.8432 177.624 94.5697 177.779C94.3008 177.93 94.0889 178.146 93.934 178.429C93.779 178.711 93.7016 179.058 93.7016 179.468ZM103.643 176.357V177.554H99.4727V176.357H103.643ZM100.587 174.539H102.07V181.758C102.07 182.109 102.143 182.366 102.289 182.53C102.435 182.69 102.67 182.77 102.993 182.77C103.071 182.77 103.153 182.765 103.239 182.756C103.33 182.747 103.422 182.733 103.513 182.715L103.793 183.945C103.643 183.995 103.479 184.034 103.301 184.062C103.123 184.089 102.945 184.103 102.768 184.103C102.107 184.103 101.578 183.918 101.182 183.549C100.785 183.175 100.587 182.678 100.587 182.059V174.539ZM108.076 173.814H109.949L113.189 181.73H113.305L116.552 173.814H118.453V184H116.949V176.631H116.853L113.838 183.986H112.622L109.641 176.624H109.545V184H108.076V173.814ZM122.269 184.164C121.786 184.164 121.348 184.075 120.956 183.897C120.564 183.715 120.254 183.451 120.026 183.104C119.799 182.758 119.685 182.337 119.685 181.84C119.685 181.407 119.767 181.054 119.931 180.78C120.099 180.502 120.325 180.281 120.608 180.117C120.89 179.953 121.205 179.83 121.551 179.748C121.897 179.666 122.253 179.602 122.617 179.557C123.078 179.507 123.449 179.463 123.732 179.427C124.014 179.39 124.219 179.333 124.347 179.256C124.479 179.174 124.545 179.044 124.545 178.866V178.832C124.545 178.399 124.422 178.064 124.176 177.827C123.934 177.59 123.574 177.472 123.096 177.472C122.599 177.472 122.205 177.581 121.913 177.8C121.626 178.014 121.428 178.258 121.318 178.531L119.917 178.21C120.086 177.745 120.33 177.371 120.649 177.089C120.972 176.802 121.341 176.592 121.756 176.46C122.175 176.328 122.613 176.262 123.068 176.262C123.374 176.262 123.697 176.298 124.039 176.371C124.381 176.439 124.702 176.569 125.003 176.761C125.308 176.948 125.557 177.216 125.748 177.567C125.94 177.918 126.035 178.372 126.035 178.928V184H124.579V182.954H124.525C124.433 183.141 124.29 183.328 124.094 183.515C123.902 183.701 123.656 183.856 123.356 183.979C123.055 184.103 122.692 184.164 122.269 184.164ZM122.59 182.975C123.005 182.975 123.358 182.895 123.65 182.735C123.941 182.571 124.165 182.357 124.319 182.093C124.474 181.828 124.552 181.548 124.552 181.252V180.261C124.497 180.311 124.395 180.359 124.244 180.404C124.094 180.45 123.923 180.489 123.732 180.521C123.54 180.552 123.353 180.582 123.171 180.609C122.989 180.632 122.836 180.65 122.713 180.664C122.426 180.705 122.164 180.769 121.927 180.855C121.69 180.938 121.498 181.061 121.353 181.225C121.211 181.384 121.141 181.596 121.141 181.86C121.141 182.229 121.277 182.507 121.551 182.694C121.824 182.881 122.171 182.975 122.59 182.975ZM130.378 184.15C129.758 184.15 129.207 183.993 128.723 183.679C128.24 183.36 127.862 182.906 127.589 182.318C127.315 181.726 127.179 181.02 127.179 180.199C127.179 179.37 127.318 178.661 127.596 178.073C127.873 177.485 128.254 177.036 128.737 176.727C129.22 176.417 129.767 176.262 130.378 176.262C130.856 176.262 131.239 176.341 131.526 176.501C131.818 176.656 132.043 176.838 132.203 177.048C132.367 177.257 132.492 177.442 132.579 177.602H132.668V173.814H134.144V184H132.702V182.811H132.579C132.492 182.97 132.365 183.155 132.196 183.364C132.027 183.574 131.797 183.758 131.506 183.918C131.219 184.073 130.843 184.15 130.378 184.15ZM130.699 182.886C131.127 182.886 131.49 182.772 131.786 182.544C132.082 182.316 132.305 181.999 132.456 181.594C132.611 181.188 132.688 180.719 132.688 180.186C132.688 179.652 132.613 179.188 132.463 178.791C132.312 178.39 132.089 178.08 131.793 177.861C131.497 177.638 131.132 177.526 130.699 177.526C130.252 177.526 129.881 177.643 129.585 177.875C129.289 178.107 129.065 178.424 128.915 178.825C128.764 179.226 128.689 179.68 128.689 180.186C128.689 180.696 128.764 181.156 128.915 181.566C129.065 181.972 129.289 182.293 129.585 182.53C129.886 182.767 130.257 182.886 130.699 182.886ZM138.931 184.157C138.184 184.157 137.537 183.995 136.99 183.672C136.443 183.348 136.021 182.893 135.725 182.305C135.433 181.712 135.288 181.022 135.288 180.233C135.288 179.45 135.431 178.759 135.718 178.162C136.01 177.565 136.418 177.1 136.942 176.768C137.471 176.43 138.09 176.262 138.801 176.262C139.234 176.262 139.653 176.332 140.059 176.474C140.465 176.615 140.829 176.838 141.153 177.144C141.476 177.449 141.732 177.845 141.918 178.333C142.11 178.821 142.206 179.409 142.206 180.097V180.63H136.128V179.516H141.44L140.749 179.885C140.749 179.415 140.677 179.001 140.531 178.641C140.385 178.281 140.166 178 139.874 177.8C139.587 177.595 139.23 177.492 138.801 177.492C138.373 177.492 138.006 177.595 137.701 177.8C137.4 178.005 137.17 178.276 137.01 178.613C136.851 178.951 136.771 179.32 136.771 179.721V180.479C136.771 181.004 136.862 181.448 137.044 181.812C137.227 182.177 137.48 182.455 137.803 182.646C138.131 182.838 138.512 182.934 138.945 182.934C139.227 182.934 139.483 182.893 139.71 182.811C139.943 182.729 140.143 182.605 140.312 182.441C140.481 182.277 140.608 182.075 140.695 181.833L142.103 182.1C141.989 182.51 141.789 182.87 141.501 183.18C141.214 183.49 140.852 183.731 140.415 183.904C139.982 184.073 139.487 184.157 138.931 184.157Z" fill="#212327"/>
<rect y="3" width="33" height="33" rx="16.5" fill="#EFF0F3"/>
<path d="M18.1953 13.2734V26H16.5957V14.9258H16.5254L13.4316 16.9824V15.3828L16.5957 13.2734H18.1953Z" fill="#111834"/>
<line x1="16.5" y1="40" x2="16.5" y2="80" stroke="#CCCFD6" stroke-dasharray="4 4"/>
<rect y="88" width="33" height="33" rx="16.5" fill="#EFF0F3"/>
<path d="M12.1953 111L12.1777 109.84L16.5195 105.27C18.0225 103.67 18.7432 102.809 18.752 101.631C18.7432 100.321 17.6533 99.4775 16.2207 99.4688C14.7002 99.4775 13.751 100.436 13.7422 101.859H12.248C12.2305 99.6094 13.9707 98.0977 16.2734 98.0977C18.585 98.0977 20.2197 99.6533 20.2285 101.631C20.2197 103.055 19.5605 104.162 17.3105 106.482L14.3926 109.488V109.594H20.457V111H12.1953Z" fill="#111834"/>
<line x1="16.5" y1="125" x2="16.5" y2="165" stroke="#CCCFD6" stroke-dasharray="4 4"/>
<rect y="173" width="33" height="33" rx="16.5" fill="#EFF0F3"/>
<path d="M16.0898 196.176C13.5586 196.176 11.7393 194.822 11.6602 192.801H13.2598C13.3477 194.014 14.5518 194.77 16.0723 194.77C17.751 194.77 18.9639 193.864 18.9727 192.537C18.9639 191.148 17.8564 190.173 15.8789 190.164H14.8418V188.775H15.8789C17.4258 188.775 18.5068 187.905 18.498 186.596C18.5068 185.321 17.5752 184.478 16.125 184.469C14.7627 184.478 13.5234 185.225 13.4531 186.473H11.9238C12.0029 184.451 13.8838 183.098 16.1426 183.098C18.5684 183.098 20.0449 184.688 20.0273 186.508C20.0449 187.958 19.2012 189.013 17.8652 189.391V189.479C19.5264 189.733 20.5283 190.92 20.5195 192.537C20.5283 194.629 18.6299 196.176 16.0898 196.176Z" fill="#111834"/>
</svg>
