<svg width="33" height="228" viewBox="0 0 33 228" fill="none" xmlns="http://www.w3.org/2000/svg">
<rect width="33" height="33" rx="16.5" fill="#B3DEC2"/>
<path d="M16.5 6.5C10.99 6.5 6.5 10.99 6.5 16.5C6.5 22.01 10.99 26.5 16.5 26.5C22.01 26.5 26.5 22.01 26.5 16.5C26.5 10.99 22.01 6.5 16.5 6.5ZM21.28 14.2L15.61 19.87C15.47 20.01 15.28 20.09 15.08 20.09C14.88 20.09 14.69 20.01 14.55 19.87L11.72 17.04C11.43 16.75 11.43 16.27 11.72 15.98C12.01 15.69 12.49 15.69 12.78 15.98L15.08 18.28L20.22 13.14C20.51 12.85 20.99 12.85 21.28 13.14C21.57 13.43 21.57 13.9 21.28 14.2Z" fill="#1B9B48"/>
<line x1="16.5" y1="37" x2="16.5" y2="77" stroke="#CCCFD6" stroke-dasharray="4 4"/>
<rect y="85" width="33" height="33" rx="16.5" fill="#B3DEC2"/>
<path d="M16.5 91.5C10.99 91.5 6.5 95.99 6.5 101.5C6.5 107.01 10.99 111.5 16.5 111.5C22.01 111.5 26.5 107.01 26.5 101.5C26.5 95.99 22.01 91.5 16.5 91.5ZM21.28 99.2L15.61 104.87C15.47 105.01 15.28 105.09 15.08 105.09C14.88 105.09 14.69 105.01 14.55 104.87L11.72 102.04C11.43 101.75 11.43 101.27 11.72 100.98C12.01 100.69 12.49 100.69 12.78 100.98L15.08 103.28L20.22 98.14C20.51 97.85 20.99 97.85 21.28 98.14C21.57 98.43 21.57 98.9 21.28 99.2Z" fill="#1B9B48"/>
<line x1="16.5" y1="122" x2="16.5" y2="162" stroke="#CCCFD6" stroke-dasharray="4 4"/>
<rect y="170" width="33" height="33" rx="16.5" fill="#B3DEC2"/>
<path d="M16.5 176.5C10.99 176.5 6.5 180.99 6.5 186.5C6.5 192.01 10.99 196.5 16.5 196.5C22.01 196.5 26.5 192.01 26.5 186.5C26.5 180.99 22.01 176.5 16.5 176.5ZM21.28 184.2L15.61 189.87C15.47 190.01 15.28 190.09 15.08 190.09C14.88 190.09 14.69 190.01 14.55 189.87L11.72 187.04C11.43 186.75 11.43 186.27 11.72 185.98C12.01 185.69 12.49 185.69 12.78 185.98L15.08 188.28L20.22 183.14C20.51 182.85 20.99 182.85 21.28 183.14C21.57 183.43 21.57 183.9 21.28 184.2Z" fill="#1B9B48"/>
</svg>
